<svg id="Capa_1" enable-background="new 0 0 512 512" height="512" viewBox="0 0 512 512" width="512" xmlns="http://www.w3.org/2000/svg"><g><g><path d="m384 40h-256c-13.255 0-24 10.745-24 24v32h304v-32c0-13.255-10.745-24-24-24z" fill="#ffdcd2"/></g><g><path d="m128 40c0 13.255 10.745 24 24 24h224c4.418 0 8 3.582 8 8v320c0 13.255 10.745 24 24 24v-344c0-17.673-14.327-32-32-32z" fill="#fff"/></g><g><path d="m400 504h-288c-17.673 0-32-14.327-32-32v-344c0-17.673 14.327-32 32-32h288c17.673 0 32 14.327 32 32v344c0 17.673-14.327 32-32 32z" fill="#ffa096"/></g><g><path d="m191.549 403.753v-163.741c0-6.218 6.784-10.059 12.116-6.86l136.451 81.871c5.179 3.107 5.179 10.613 0 13.72l-136.451 81.87c-5.332 3.2-12.116-.641-12.116-6.86z" fill="#ffdcd2"/></g><g><path d="m128 96c0 13.255 10.745 24 24 24h248c4.418 0 8 3.582 8 8v320c0 13.255 10.745 24 24 24v-344c0-17.673-14.327-32-32-32z" fill="#fff"/></g><g><path d="m408 104c-4.418 0-8-3.581-8-8v-32c0-8.822-7.178-16-16-16h-256c-8.822 0-16 7.178-16 16v32c0 4.419-3.582 8-8 8-4.419 0-8-3.581-8-8v-32c0-17.645 14.355-32 32-32h256c17.645 0 32 14.355 32 32v32c0 4.419-3.582 8-8 8z" fill="#ffa096"/></g><g><path d="m400 512h-288c-22.056 0-40-17.944-40-40v-344c0-22.056 17.944-40 40-40h288c22.056 0 40 17.944 40 40v344c0 22.056-17.944 40-40 40zm-288-408c-13.234 0-24 10.766-24 24v344c0 13.234 10.766 24 24 24h288c13.233 0 24-10.766 24-24v-344c0-13.234-10.767-24-24-24z" fill="#c37678"/></g><g><path d="m320 512h-208c-22.056 0-40-17.944-40-40v-232c0-4.419 3.581-8 8-8 4.418 0 8 3.581 8 8v232c0 13.233 10.767 24 24 24h208c4.418 0 8 3.582 8 8 0 4.419-3.582 8-8 8z" fill="#283246"/></g><path d="m352 137.376v-41.376c0-52.935-43.065-96-96-96s-96 43.065-96 96v41.376c-9.311 3.302-16 12.195-16 22.624 0 13.234 10.766 24 24 24s24-10.766 24-24c0-10.429-6.689-19.322-16-22.624v-41.376c0-44.112 35.888-80 80-80s80 35.888 80 80v41.376c-9.311 3.302-16 12.194-16 22.624 0 13.234 10.767 24 24 24s24-10.766 24-24c0-10.429-6.689-19.321-16-22.624zm-184 30.624c-4.411 0-8-3.589-8-8s3.589-8 8-8 8 3.589 8 8-3.589 8-8 8zm176 0c-4.411 0-8-3.589-8-8s3.589-8 8-8 8 3.589 8 8-3.589 8-8 8z" fill="#283246"/><g><path d="m340.116 315.023-124.567-74.74v10.953c0 11.24 5.898 21.657 15.536 27.44l60.579 36.348c5.179 3.107 5.179 10.613 0 13.72l-20.579 12.348c-9.639 5.783-15.536 16.199-15.536 27.44v10.953l84.567-50.74c5.179-3.109 5.179-10.615 0-13.722z" fill="#fff"/></g><g><path d="m199.554 419.782c-2.702 0-5.407-.701-7.888-2.105-5.083-2.878-8.117-8.083-8.117-13.923v-163.742c0-5.84 3.034-11.045 8.117-13.923 5.083-2.876 11.107-2.801 16.115.204l136.452 81.871c4.863 2.918 7.768 8.047 7.768 13.72s-2.904 10.802-7.769 13.72l-136.451 81.871c-2.563 1.536-5.393 2.307-8.227 2.307zm-.005-179.77v163.741c0 .03.003.044.003.044l136.448-81.914z" fill="#283246"/></g></g></svg>