<svg height="512pt" viewBox="0 0 512 512" width="512pt" xmlns="http://www.w3.org/2000/svg"><path d="m512 256c0 141.386719-114.613281 256-256 256s-256-114.613281-256-256 114.613281-256 256-256 256 114.613281 256 256zm0 0" fill="#ffe767"/><path d="m511.574219 270.636719-174.105469-174.042969c-2.554688-3.113281-6.421875-5.109375-10.738281-5.109375h-22.046875c-7.652344 0-13.914063 6.261719-13.914063 13.914063v10.171874l-67.585937-68.546874c-3.910156-4.519532-9.683594-7.382813-16.128906-7.382813h-8.789063c-11.785156 0-21.339844 9.554687-21.339844 21.34375v60.296875h-13.683593c-14.964844 0-27.210938 12.246094-27.210938 27.210938v209.390624c0 29.160157 12.839844 55.460938 33.144531 73.542969l80.492188 80.496094c2.105469.050781 4.214843.078125 6.332031.078125 136.472656 0 247.988281-106.789062 255.574219-241.363281zm0 0" fill="#ffd000"/><path d="m340.644531 121.894531h-49.875v-16.496093c0-7.652344 6.261719-13.914063 13.914063-13.914063h22.046875c7.652343 0 13.914062 6.261719 13.914062 13.914063zm0 0" fill="#ff001a"/><path d="m228.398438 123.9375h-51.472657v-62.953125c0-11.789063 9.554688-21.34375 21.339844-21.34375h8.789063c11.789062 0 21.34375 9.554687 21.34375 21.34375zm0 0" fill="#002659"/><path d="m277.433594 456.417969h-42.867188c-54.195312 0-98.535156-44.34375-98.535156-98.535157v-209.390624c0-14.964844 12.246094-27.210938 27.210938-27.210938h185.515624c14.964844 0 27.210938 12.246094 27.210938 27.210938v209.390624c0 54.191407-44.339844 98.535157-98.535156 98.535157zm0 0" fill="#00429b"/><path d="m375.96875 148.488281v209.390625c0 54.199219-44.339844 98.542969-98.539062 98.542969h-21.429688v-335.140625h92.761719c14.957031 0 27.207031 12.25 27.207031 27.207031zm0 0" fill="#002659"/><path d="m266.882812 371.160156c0 6.011719-4.871093 10.882813-10.882812 10.882813s-10.882812-4.871094-10.882812-10.882813c0-6.007812 4.871093-10.882812 10.882812-10.882812s10.882812 4.875 10.882812 10.882812zm0 0" fill="#002659"/><path d="m266.882812 322.261719c0 6.011719-4.871093 10.882812-10.882812 10.882812s-10.882812-4.871093-10.882812-10.882812c0-6.007813 4.871093-10.878907 10.882812-10.878907s10.882812 4.871094 10.882812 10.878907zm0 0" fill="#002659"/><path d="m242.433594 346.710938c0 6.011718-4.871094 10.882812-10.882813 10.882812-6.007812 0-10.882812-4.871094-10.882812-10.882812 0-6.007813 4.875-10.882813 10.882812-10.882813 6.011719 0 10.882813 4.875 10.882813 10.882813zm0 0" fill="#002659"/><path d="m291.332031 346.710938c0 6.011718-4.875 10.882812-10.882812 10.882812-6.011719 0-10.882813-4.871094-10.882813-10.882812 0-6.007813 4.871094-10.882813 10.882813-10.882813 6.007812 0 10.882812 4.875 10.882812 10.882813zm0 0" fill="#001737"/><path d="m267.828125 408.347656c0 6.535156-5.296875 11.828125-11.828125 11.828125s-11.828125-5.292969-11.828125-11.828125c0-6.53125 5.296875-11.828125 11.828125-11.828125s11.828125 5.296875 11.828125 11.828125zm0 0" fill="#002659"/><path d="m267.828125 285.074219c0 6.535156-5.296875 11.828125-11.828125 11.828125s-11.828125-5.292969-11.828125-11.828125c0-6.53125 5.296875-11.828125 11.828125-11.828125s11.828125 5.296875 11.828125 11.828125zm0 0" fill="#002659"/><path d="m163.867188 152.710938h184.265624v76.835937h-184.265624zm0 0" fill="#fff"/><path d="m256 152.714844h92.128906v76.828125h-92.128906zm0 0" fill="#fff5ca"/><path d="m329.464844 346.710938c0 6.535156-5.296875 11.828124-11.828125 11.828124s-11.828125-5.292968-11.828125-11.828124c0-6.53125 5.296875-11.828126 11.828125-11.828126s11.828125 5.296876 11.828125 11.828126zm0 0" fill="#001737"/><path d="m206.191406 346.710938c0 6.535156-5.296875 11.828124-11.828125 11.828124s-11.828125-5.292968-11.828125-11.828124c0-6.53125 5.296875-11.828126 11.828125-11.828126s11.828125 5.296876 11.828125 11.828126zm0 0" fill="#002659"/><path d="m307.941406 381.929688c-4.617187-4.617188-12.105468-4.617188-16.726562 0-4.617188 4.621093-4.617188 12.109374 0 16.730468 4.621094 4.617188 12.109375 4.617188 16.726562 0 4.621094-4.621094 4.621094-12.109375 0-16.730468zm0 0" fill="#001737"/><path d="m220.777344 294.765625c-4.621094-4.621094-12.109375-4.621094-16.726563 0-4.621093 4.617187-4.621093 12.105469 0 16.726563 4.617188 4.617187 12.105469 4.617187 16.726563 0 4.617187-4.621094 4.617187-12.109376 0-16.726563zm0 0" fill="#002659"/><path d="m220.777344 381.929688c-4.621094-4.617188-12.109375-4.617188-16.730469 0-4.617187 4.621093-4.617187 12.109374 0 16.730468 4.621094 4.617188 12.109375 4.617188 16.730469 0 4.617187-4.621094 4.617187-12.109375 0-16.730468zm0 0" fill="#002659"/><g fill="#001737"><path d="m307.945312 294.765625c-4.621093-4.617187-12.109374-4.617187-16.730468 0-4.617188 4.621094-4.617188 12.109375 0 16.726563 4.621094 4.621093 12.109375 4.621093 16.730468 0 4.617188-4.617188 4.617188-12.105469 0-16.726563zm0 0"/><path d="m266.878906 371.164062c0 6.007813-4.871094 10.878907-10.878906 10.878907v-21.765625c6.007812 0 10.878906 4.871094 10.878906 10.886718zm0 0"/><path d="m266.878906 322.265625c0 6.007813-4.871094 10.878906-10.878906 10.878906v-21.765625c6.007812 0 10.878906 4.878906 10.878906 10.886719zm0 0"/><path d="m267.824219 408.34375c0 6.535156-5.289063 11.835938-11.824219 11.835938v-23.660157c6.535156 0 11.824219 5.300781 11.824219 11.824219zm0 0"/><path d="m267.824219 285.074219c0 6.535156-5.289063 11.828125-11.824219 11.828125v-23.652344c6.535156 0 11.824219 5.289062 11.824219 11.824219zm0 0"/></g><path d="m345.777344 265.832031c0 8.871094-7.191406 16.0625-16.0625 16.0625s-16.0625-7.191406-16.0625-16.0625c0-8.871093 7.191406-16.058593 16.0625-16.058593s16.0625 7.1875 16.0625 16.058593zm0 0" fill="#ff6339"/><path d="m198.347656 265.832031c0 8.871094-7.191406 16.0625-16.0625 16.0625s-16.0625-7.191406-16.0625-16.0625c0-8.871093 7.191406-16.058593 16.0625-16.058593s16.0625 7.1875 16.0625 16.058593zm0 0" fill="#ff9b00"/></svg>