<svg id="Layer_1" data-name="Layer 1" xmlns="http://www.w3.org/2000/svg" viewBox="0 0 885.98 453.6"><defs><style>.cls-1{font-size:350.54px;fill:#ff0a7f;font-family:Fontastique-Fontastique, Fontastique;letter-spacing:-0.05em;}.cls-2{font-family:TimesSansSerif, Times Sans Serif;}.cls-3{fill:#fff;font-family:Quantify;letter-spacing:-0.05em;}.cls-4{fill:#b21c1e;}</style></defs><text class="cls-1" transform="translate(0 297.95)">T<tspan class="cls-2" x="179.47" y="0">ime</tspan><tspan class="cls-3" x="652.53" y="0">X</tspan></text><path class="cls-4" d="M-2670.56,679.27l8.47-10.13c4.92,4,11,6.8,17.32,6.8s9.15-2.42,9.15-5.61c0-4.69-3.87-5.83-10-8.41l-8.49-3.62c-7.22-2.75-13.81-8.29-13.81-17.77,0-10.79,9.72-19.42,23.88-19.42a31.58,31.58,0,0,1,21.64,8.53l-7.43,9.3c-4.58-3.3-8.65-5.09-15-5.09-4.86,0-8.16,2-8.16,5.82s4.37,5.35,10.62,7.7l8,3.38c8.54,3.2,13.93,8.52,13.93,17.71,0,10.84-9.09,20.22-25.23,20.22A37.55,37.55,0,0,1-2670.56,679.27Z" transform="translate(2896.09 -235.09)"/><path class="cls-4" d="M-2606.36,622.31h43.2v12.37h-28.45v13.07h24.17v12.36h-24.17v15h29.45v12.37h-44.2Z" transform="translate(2896.09 -235.09)"/><path class="cls-4" d="M-2548.66,622.31h23.17c13.81,0,25.17,4.8,25.17,20.3,0,15-11.36,21.43-25.17,21.43h-8.39v23.44h-14.78Zm22,30c7.75,0,11.91-3.34,11.91-9.72s-4.16-8.59-11.91-8.59h-7.19v18.31Zm8.7-1.63,20.8,36.78h-16.5l-14.51-27.33Z" transform="translate(2896.09 -235.09)"/><path class="cls-4" d="M-2488.19,675.11H-2473V634.68h-15.22V622.31H-2443v12.37h-15.22v40.43H-2443v12.37h-45.19Z" transform="translate(2896.09 -235.09)"/><path class="cls-4" d="M-2426.37,622.31h43.2v12.37h-28.44v13.07h24.17v12.36h-24.17v15h29.44v12.37h-44.2Z" transform="translate(2896.09 -235.09)"/><path class="cls-4" d="M-2370.56,679.27l8.46-10.13c4.93,4,11,6.8,17.33,6.8s9.15-2.42,9.15-5.61c0-4.69-3.88-5.83-10-8.41l-8.49-3.62c-7.23-2.75-13.82-8.29-13.82-17.77,0-10.79,9.73-19.42,23.89-19.42a31.58,31.58,0,0,1,21.64,8.53l-7.43,9.3c-4.59-3.3-8.65-5.09-15-5.09-4.86,0-8.15,2-8.15,5.82s4.36,5.35,10.61,7.7l8,3.38c8.53,3.2,13.92,8.52,13.92,17.71,0,10.84-9.09,20.22-25.22,20.22A37.53,37.53,0,0,1-2370.56,679.27Z" transform="translate(2896.09 -235.09)"/><path class="cls-4" d="M-2286.42,679.68l6.8-9.3c4.2,3.71,9.74,6.42,15.49,6.42,6.89,0,11.88-2.69,11.88-7.56,0-5.58-4.31-9-19.13-9V649.81c12.43,0,17.07-3.47,17.07-8.51,0-4.44-3.64-7-9.39-7-5,0-9.12,2-13.46,5.53l-7.44-9c6.17-5,13.36-8.15,21.56-8.15,13.88,0,23.48,6.27,23.48,17.43,0,6.55-4.54,11.23-12.15,14.12v.4c8,2.09,14.21,7.26,14.21,15.48,0,11.81-11.77,18.49-25.19,18.49C-2273.55,688.68-2281.5,685-2286.42,679.68Z" transform="translate(2896.09 -235.09)"/></svg>