<svg id="Layer_1" enable-background="new 0 0 512 512" height="512" viewBox="0 0 512 512" width="512" xmlns="http://www.w3.org/2000/svg" xmlns:xlink="http://www.w3.org/1999/xlink"><linearGradient id="SVGID_1_" gradientUnits="userSpaceOnUse" x1="256" x2="256" y1="0" y2="512"><stop offset="0" stop-color="#8df49b"/><stop offset="1" stop-color="#589cf9"/></linearGradient><path d="m443.5 160h-20v-48c0-32.749-26.377-59.437-59-59.975v-52.025h-40v52h-156v-52h-40v52c-33.084 0-60 26.916-60 60v287c0 33.084 26.916 60 60 60v53h40v-53h156v53h40v-53.025c32.623-.538 59-27.226 59-59.975v-163h20zm-60 239c0 11.028-8.972 20-20 20h-235c-11.028 0-20-8.972-20-20v-287c0-11.028 8.972-20 20-20h235c11.028 0 20 8.972 20 20zm-118-163h78v40h-118v-144h40z" fill="url(#SVGID_1_)"/></svg>