<?xml version="1.0" encoding="iso-8859-1"?>
<!-- Generator: Adobe Illustrator 19.0.0, SVG Export Plug-In . SVG Version: 6.00 Build 0)  -->
<svg version="1.1" id="Capa_1" xmlns="http://www.w3.org/2000/svg" xmlns:xlink="http://www.w3.org/1999/xlink" x="0px" y="0px"
	 viewBox="0 0 448 448" style="enable-background:new 0 0 448 448;" xml:space="preserve">
<g>
	<g>
		<rect x="344" y="143.999" width="16" height="48"/>
	</g>
</g>
<g>
	<g>
		<rect x="344" y="223.999" width="16" height="79.736"/>
	</g>
</g>
<g>
	<g>
		<polygon points="264,0 152,0 136,64 280,64 		"/>
	</g>
</g>
<g>
	<g>
		<polygon points="136,384 152,448 264,448 280,384 		"/>
	</g>
</g>
<g>
	<g>
		<path d="M280,80H136c-26.51,0-48,21.49-48,48v192c0,26.51,21.49,48,48,48h144c26.51,0,48-21.49,48-48V128
			C328,101.49,306.51,80,280,80z M220.96,170.254c8.61-4.97,19.618-2.021,24.588,6.588c4.97,8.61,2.022,19.618-6.588,24.589
			c-8.61,4.97-19.618,2.021-24.589-6.589C209.401,186.234,212.35,175.225,220.96,170.254z M185.934,167.903c9.942,0,18,8.058,18,18
			s-8.058,18-18,18c-9.942,0-18-8.058-18-18S175.994,167.903,185.934,167.903z M154.974,239.65
			c-8.61-4.97-11.558-15.979-6.588-24.589c4.97-8.61,15.978-11.558,24.588-6.588c8.61,4.97,11.559,15.978,6.589,24.588
			C174.593,241.67,163.584,244.62,154.974,239.65z M195.04,277.746c-8.61,4.97-19.618,2.021-24.588-6.589
			c-4.97-8.61-2.022-19.618,6.588-24.588c8.61-4.97,19.618-2.022,24.589,6.588C206.599,261.766,203.65,272.775,195.04,277.746z
			 M187,223.999c0-11.598,9.402-21,21-21c11.598,0,21,9.402,21,21c0,11.598-9.402,21-21,21C196.402,244.999,187,235.598,187,223.999
			z M230.066,280.097c-9.942,0-18-8.059-18-18c0-9.942,8.058-18,18-18s18,8.058,18,18
			C248.066,272.037,240.007,280.097,230.066,280.097z M267.614,232.938c-4.97,8.61-15.978,11.559-24.588,6.589
			s-11.559-15.979-6.589-24.589s15.979-11.558,24.589-6.588S272.584,224.329,267.614,232.938z"/>
	</g>
</g>
<g>
</g>
<g>
</g>
<g>
</g>
<g>
</g>
<g>
</g>
<g>
</g>
<g>
</g>
<g>
</g>
<g>
</g>
<g>
</g>
<g>
</g>
<g>
</g>
<g>
</g>
<g>
</g>
<g>
</g>
</svg>
