<?xml version="1.0" encoding="iso-8859-1"?>
<!-- Generator: Adobe Illustrator 19.0.0, SVG Export Plug-In . SVG Version: 6.00 Build 0)  -->
<svg version="1.1" id="Capa_1" xmlns="http://www.w3.org/2000/svg" xmlns:xlink="http://www.w3.org/1999/xlink" x="0px" y="0px"
	 viewBox="0 0 448 448" style="enable-background:new 0 0 448 448;" xml:space="preserve">
<g>
	<g>
		<path d="M256.802,175.358c-1.546-1.569-4.077-1.623-5.655-0.076L214.382,211c-1.143,1.105-1.194,2.638-0.73,4.049l-3.941,3.825
			c-0.353-0.149-0.601-0.454-0.986-0.528v-7.627h-1.594v7.628c-0.651,0.125-1.121,0.563-1.663,0.894l-4.226-2.85
			c0.209-1.468-0.112-2.968-1.423-3.858l-21.062-14.195c-1.828-1.25-4.328-0.766-5.547,1.078c-1.234,1.828-0.75,4.313,1.078,5.554
			l21.062,14.195c0.687,0.469,1.469,0.687,2.234,0.687c0.744,0,1.447-0.265,2.086-0.664l3.868,2.608
			c-0.102,0.366-0.407,0.624-0.407,1.032c0,2.345,1.782,4.061,4,4.488v61.137h1.594v-61.136c2.221-0.428,4.016-2.145,4.016-4.49
			c0-0.699-0.417-1.198-0.7-1.766l3.846-3.733c0.438,0.159,0.81,0.537,1.275,0.537c1,0,2.016-0.375,2.782-1.133l36.766-35.718
			C258.302,179.474,258.334,176.943,256.802,175.358z"/>
	</g>
</g>
<g>
	<g>
		<rect x="344" y="144" width="16" height="48"/>
	</g>
</g>
<g>
	<g>
		<rect x="344" y="224" width="16" height="79.736"/>
	</g>
</g>
<g>
	<g>
		<path d="M293.685,82.221L280,0H136l-13.718,82.23C102.505,88.162,88,106.291,88,128v192c0,21.709,14.505,39.838,34.282,45.77
			L136,448h144l13.685-82.221C313.478,359.858,328,341.721,328,320V128C328,106.279,313.478,88.142,293.685,82.221z M149.553,16
			h116.89l10.753,64H138.854L149.553,16z M266.443,432h-116.89l-10.699-64h138.342L266.443,432z M312,320c0,17.645-14.355,32-32,32
			h-0.115H136.178H136c-17.645,0-32-14.355-32-32V128c0-17.646,14.355-32,32-32h0.178h143.706H280c17.645,0,32,14.354,32,32V320z"/>
	</g>
</g>
<g>
</g>
<g>
</g>
<g>
</g>
<g>
</g>
<g>
</g>
<g>
</g>
<g>
</g>
<g>
</g>
<g>
</g>
<g>
</g>
<g>
</g>
<g>
</g>
<g>
</g>
<g>
</g>
<g>
</g>
</svg>
