<svg id="Capa_1" enable-background="new 0 0 512 512" height="512" viewBox="0 0 512 512" width="512" xmlns="http://www.w3.org/2000/svg"><g><path d="m478.105 42.643c-15.362-20.995-30.524-37.222-31.163-37.901-2.835-3.026-6.796-4.742-10.942-4.742s-8.107 1.716-10.943 4.741c-.638.68-15.801 16.906-31.163 37.901-22.134 30.251-32.894 53.92-32.894 72.358 0 41.355 33.645 75 75 75s75-33.645 75-75c0-18.438-10.76-42.107-32.895-72.357zm-42.105 117.357c-24.813 0-45-20.187-45-45 0-18.423 24.385-53.145 45-77.431 20.615 24.286 45 59.008 45 77.431 0 24.813-20.187 45-45 45z"/><path d="m286.943 86.741c-2.836-3.025-6.797-4.741-10.943-4.741s-8.107 1.716-10.943 4.741c-1.14 1.216-21.301 22.796-46.781 54.445-8.328-21.994-23.367-47.819-45.011-77.213-24.263-32.953-47.83-58.174-48.822-59.232-2.836-3.025-6.797-4.741-10.943-4.741s-8.107 1.716-10.943 4.741c-1.021 1.089-25.282 27.052-49.913 60.714-34.269 46.834-51.644 84.531-51.644 112.045 0 62.032 50.467 112.5 112.5 112.5 3.543 0 7.063-.168 10.556-.494-8.684 21.728-13.056 40.93-13.056 57.494 0 90.981 74.019 165 165 165s165-74.019 165-165c0-40.577-26.208-96.969-77.895-167.607-37.605-51.396-74.605-90.992-76.162-92.652zm-173.443 173.259c-45.491 0-82.5-37.01-82.5-82.5 0-37.904 52.252-105.528 82.498-140.109 28.312 32.39 76.325 94.255 81.952 133.155-2.179 2.907-4.365 5.855-6.555 8.847-20.207 27.616-36.501 53.044-48.876 76.211-8.519 2.906-17.413 4.396-26.519 4.396zm162.5 222c-74.439 0-135-60.561-135-135 0-63.377 89.114-176.327 135.002-227.754 45.891 51.411 134.998 164.328 134.998 227.754 0 74.439-60.561 135-135 135z"/><path d="m171 347c0 57.897 47.103 105 105 105s105-47.103 105-105-47.103-105-105-105-105 47.103-105 105zm180 0c0 41.355-33.645 75-75 75s-75-33.645-75-75 33.645-75 75-75 75 33.645 75 75z"/><path d="m261 307v33.787l-23.891 23.891c-5.858 5.857-5.858 15.355 0 21.213 2.929 2.929 6.768 4.394 10.606 4.394s7.678-1.465 10.606-4.394l28.284-28.284c2.814-2.813 4.395-6.628 4.395-10.607v-40c0-8.284-6.716-15-15-15s-15 6.716-15 15z"/></g></svg>